<svg xmlns="http://www.w3.org/2000/svg" xmlns:xlink="http://www.w3.org/1999/xlink" viewBox="0 0 171.15 83.87"><defs><linearGradient id="linear-gradient" x1="-3.71" y1="41.93" x2="165.02" y2="41.93" gradientTransform="translate(5)" gradientUnits="userSpaceOnUse"><stop offset="0" stop-color="#cce0f4"/><stop offset="0.2" stop-color="#c3def4"/><stop offset="0.53" stop-color="#a9daf5"/><stop offset="0.95" stop-color="#80d4f7"/><stop offset="1" stop-color="#7bd3f7"/></linearGradient></defs><g id="Layer_2" data-name="Layer 2"><g id="Layer_1-2" data-name="Layer 1"><path d="M32.69,37.39,27.41,25.1h-17L5.09,37.39H1.29L16.89.85H21l15.7,36.54ZM19,5,11.81,21.79H26Z" style="fill:none;stroke-width:1.7000000000000002px;stroke:url(#linear-gradient)"/><path d="M58.52,37.39,36.84,5.24h-.1V37.39H33.09V.85H38L58.42,31.17h.1V.85h3.66V37.39Z" style="fill:none;stroke-width:1.7000000000000002px;stroke:url(#linear-gradient)"/><path d="M62.22,37.39V.85H73a22.75,22.75,0,0,1,12.1,3.21,18.31,18.31,0,0,1,8,15.26A17.81,17.81,0,0,1,87.8,31.91c-3.55,3.7-8.74,5.48-14.91,5.48Zm10.37-3.31c6.08,0,10.13-1.58,12.79-4.39a15.33,15.33,0,0,0,4.05-10.57A14.5,14.5,0,0,0,83.61,7.27c-2.57-2-6.47-3.11-11.16-3.11H65.88V34.08Z" style="fill:none;stroke-width:1.7000000000000002px;stroke:url(#linear-gradient)"/><path d="M102.17,37.39,89.78,20.85h3.55c6.47,0,10.33-3.31,10.33-8.3,0-3.45-2.13-8.39-10.52-8.39h-7V37.39H82.52V.85h11c9.53,0,13.78,5.63,13.78,11.8,0,5.93-4.44,10.62-10.86,11.11l10.32,13.63Z" style="fill:none;stroke-width:1.7000000000000002px;stroke:url(#linear-gradient)"/><path d="M107.36,37.39V.85h20l.84,3.31H111V17.29h15.81V20.6H111V34.08h16.35v3.31Z" style="fill:none;stroke-width:1.7000000000000002px;stroke:url(#linear-gradient)"/><path d="M154.91,37.39l-8-30h-.09l-8,30h-4.7L123.66.85h3.75l8.94,31.85h.1L145.14.85h3.4l8.74,31.8h.1L166.32.85H170L159.56,37.39Z" style="fill:none;stroke-width:1.7000000000000002px;stroke:url(#linear-gradient)"/><path d="M24.79,82.38V65.24H5.09V82.38H1.29V45.84h3.8V61.93h19.7V45.84H28.6V82.38Z" style="fill:none;stroke-width:1.7000000000000002px;stroke:url(#linear-gradient)"/><path d="M47,45.84h3.8V69c0,9.23-5.6,14-13,14s-13-4.64-13-14.12V45.84h3.81V69.09c0,7.36,4.11,10.62,9.15,10.62,4.37,0,9.16-2.62,9.16-10.57Z" style="fill:none;stroke-width:1.7000000000000002px;stroke:url(#linear-gradient)"/><path d="M73.39,82.38,50.81,50.23h-.1V82.38H46.9V45.84h5.15L73.29,76.16h.1V45.84H77.2V82.38Z" style="fill:none;stroke-width:1.7000000000000002px;stroke:url(#linear-gradient)"/><path d="M88.05,70V66.72h26.6c-.5,1.14-.89,2.27-1.4,3.35-3.54,7.49-10.16,13-19.49,13-10.44,0-20.42-8-20.42-18.91,0-10.47,9.2-18.92,20.36-18.92,8.54,0,15.79,5.24,18,10.37h-4.42c-2.62-4.29-8.07-7.06-13.52-7.06-9,0-16.62,6.92-16.62,15.66s7.72,15.55,16.77,15.55c6.89,0,13.63-3.36,15.38-9.68Z" style="fill:none;stroke-width:1.7000000000000002px;stroke:url(#linear-gradient)"/><path d="M136.47,82.38,131,70.08H113.28l-5.55,12.3h-4L120,45.84h4.27l16.35,36.54ZM122.18,50l-7.46,16.79h14.76Z" style="fill:none;stroke-width:1.7000000000000002px;stroke:url(#linear-gradient)"/><path d="M140.45,82.38V49.14h-8.74v-3.3H153v3.3h-8.69V82.38Z" style="fill:none;stroke-width:1.7000000000000002px;stroke:url(#linear-gradient)"/><path d="M149.2,82.38V45.84H170v3.3H153V62.28h16.46v3.31H153V79.07h17v3.31Z" style="fill:none;stroke-width:1.7000000000000002px;stroke:url(#linear-gradient)"/></g></g></svg>