<?xml version="1.0" standalone="no"?>
<!DOCTYPE svg PUBLIC "-//W3C//DTD SVG 20010904//EN"
 "http://www.w3.org/TR/2001/REC-SVG-20010904/DTD/svg10.dtd">
<svg version="1.0" xmlns="http://www.w3.org/2000/svg"
 width="513.000000pt" height="97.000000pt" viewBox="0 0 513.000000 97.000000"
 preserveAspectRatio="xMidYMid meet">

<g transform="translate(0.000000,97.000000) scale(0.100000,-0.100000)"
fill="#000000" stroke="none">
<path d="M1931 817 c-9 -11 -29 -17 -60 -17 l-46 -1 35 -16 c19 -9 38 -15 43
-14 4 0 6 -96 5 -216 l-3 -216 -40 -13 c-38 -11 -37 -12 53 -13 55 -1 92 3 92
9 0 6 -15 10 -34 10 -19 0 -38 5 -41 10 -3 6 0 10 7 10 11 0 13 18 10 88 -3
70 -1 96 13 121 31 61 123 75 140 20 6 -17 9 -19 16 -8 6 9 8 -34 7 -110 l-3
-124 -40 -13 c-38 -11 -36 -12 53 -13 55 -1 92 3 92 9 0 6 -15 10 -34 10 -19
0 -38 4 -41 10 -3 5 0 10 7 10 10 0 12 28 10 132 -4 125 -15 176 -32 147 -6
-8 -13 -8 -28 0 -33 17 -94 13 -122 -9 -31 -24 -59 -28 -36 -4 9 9 13 21 9 27
-5 7 -10 52 -13 101 -4 77 -7 87 -19 73z"/>
<path d="M2595 779 c-16 -6 -57 -7 -90 -4 l-60 6 35 -23 c19 -12 38 -21 43
-20 4 1 6 -89 5 -200 l-3 -201 -40 -13 c-38 -11 -36 -12 58 -13 59 -1 97 3 97
9 0 6 -18 10 -39 10 -22 0 -43 5 -46 10 -3 6 0 10 8 10 12 0 13 14 9 68 -7
106 -1 112 113 112 56 0 96 -4 100 -11 4 -6 13 -8 21 -5 12 5 14 -10 12 -86
l-3 -91 -40 -13 c-38 -11 -36 -12 53 -13 55 -1 92 3 92 9 0 6 -15 10 -34 10
-19 0 -38 4 -41 10 -3 6 0 10 7 10 10 0 12 36 10 176 -2 97 -1 187 2 200 4 14
18 30 31 36 39 18 29 27 -17 16 -24 -5 -65 -6 -93 -3 l-50 6 35 -22 c19 -13
38 -22 43 -21 4 1 7 -38 7 -88 l0 -90 -130 0 c-80 0 -130 4 -130 10 0 6 7 10
15 10 12 0 13 4 5 19 -13 25 -13 116 0 141 5 10 21 21 35 24 14 4 25 11 25 16
0 12 -5 12 -45 -1z"/>
<path d="M220 770 c0 -9 51 -32 57 -26 3 3 2 9 -1 14 -7 12 -56 22 -56 12z"/>
<path d="M340 771 l-25 -7 -5 -259 c-4 -223 -7 -265 -23 -292 -19 -35 -62 -63
-99 -64 -13 0 -32 -5 -43 -10 -14 -6 0 -8 48 -6 61 3 71 6 100 35 l32 32 5
272 c3 186 9 273 16 275 6 2 20 10 30 18 21 16 8 18 -36 6z"/>
<path d="M4558 735 c-10 -14 -18 -41 -18 -64 0 -38 -2 -41 -27 -41 -16 0 -35
-5 -43 -10 -12 -8 -11 -10 7 -10 12 0 24 -4 28 -10 3 -5 12 -7 20 -3 13 4 15
-13 15 -113 0 -81 -3 -114 -10 -104 -8 12 -10 10 -10 -11 0 -39 34 -69 80 -69
39 0 90 17 90 30 0 16 -13 17 -42 3 -24 -13 -35 -13 -56 -3 -23 10 -24 13 -10
19 13 4 15 10 8 21 -14 22 -13 213 2 228 7 7 29 12 50 12 32 0 38 3 38 22 0
17 -3 19 -12 10 -14 -14 -94 -16 -103 -2 -3 6 0 10 8 10 11 0 14 11 10 48 -6
64 -6 63 -25 37z"/>
<path d="M1522 650 c-9 -15 -24 -20 -60 -21 -43 -1 -45 -1 -19 -11 15 -5 27
-14 27 -20 0 -6 7 -8 15 -4 14 5 15 -21 13 -216 l-3 -221 -40 -13 c-38 -11
-36 -12 58 -13 53 -1 97 3 97 8 0 5 -6 9 -12 8 -44 -1 -69 4 -62 14 3 6 7 41
8 78 l1 66 71 -3 c68 -4 73 -2 107 28 20 17 43 51 53 75 22 58 16 160 -11 201
-15 23 -20 25 -23 12 -3 -15 -8 -14 -39 8 -44 29 -77 30 -122 3 -18 -11 -41
-18 -50 -16 -14 4 -14 5 2 6 18 1 22 18 9 38 -6 9 -11 7 -20 -7z m167 -54 c12
-13 27 -41 33 -62 9 -33 12 -36 19 -19 5 14 8 5 8 -32 1 -59 -11 -98 -41 -130
-38 -41 -109 -42 -158 -2 -17 14 -19 19 -7 15 15 -5 16 -2 7 14 -5 10 -10 55
-10 100 0 77 2 83 29 111 38 37 88 40 120 5z"/>
<path d="M3272 650 c-9 -15 -23 -20 -60 -21 -43 -1 -45 -1 -19 -11 15 -5 27
-14 27 -20 0 -6 7 -8 15 -4 13 5 15 -10 15 -98 l0 -104 -47 -31 c-51 -34 -98
-40 -129 -16 -17 13 -17 14 -2 15 15 0 16 4 8 26 -6 14 -10 82 -10 151 0 122
-1 125 -18 110 -11 -10 -36 -17 -63 -17 l-44 -1 35 -16 c19 -9 38 -15 43 -15
4 1 7 -49 7 -111 0 -76 -3 -107 -10 -97 -8 13 -10 13 -10 -2 -1 -81 91 -112
190 -64 28 13 50 20 50 15 0 -5 -4 -9 -10 -9 -5 0 -10 -7 -10 -16 0 -12 7 -14
33 -9 47 11 77 23 77 33 0 5 -13 7 -29 4 -16 -2 -32 1 -35 7 -4 6 -1 11 6 11
10 0 12 27 10 122 -1 68 -3 138 -5 156 -2 31 -3 31 -15 12z"/>
<path d="M3456 647 c-14 -15 -27 -18 -60 -14 -38 5 -40 5 -21 -9 11 -8 30 -17
43 -21 22 -5 23 -7 20 -136 l-3 -130 -40 -13 c-38 -11 -36 -12 53 -13 55 -1
92 3 92 9 0 6 -16 10 -35 10 -19 0 -35 5 -35 10 0 6 3 10 8 10 4 0 5 43 4 95
-4 109 7 137 63 161 41 17 80 4 89 -30 5 -18 8 -19 16 -6 7 10 9 -24 8 -109
l-3 -124 -35 -13 c-33 -12 -29 -13 58 -13 55 -1 92 3 92 9 0 6 -18 10 -39 10
-22 0 -43 5 -46 10 -3 6 0 10 7 10 10 0 12 27 10 127 -4 124 -15 180 -32 153
-6 -9 -13 -9 -28 -1 -33 18 -96 13 -125 -9 -31 -24 -55 -27 -32 -4 9 10 12 20
7 23 -5 3 -11 11 -13 16 -2 6 -12 2 -23 -8z"/>
<path d="M4101 658 c-7 -8 -43 -13 -94 -14 -45 0 -90 -4 -99 -8 -21 -10 -43
-43 -52 -79 -3 -15 -11 -25 -16 -22 -16 10 -11 -25 7 -56 10 -16 23 -27 30
-25 7 3 13 1 13 -4 0 -6 -4 -10 -8 -10 -4 0 -16 -13 -25 -30 -10 -16 -25 -30
-33 -30 -20 0 -18 -9 9 -34 12 -12 32 -20 42 -18 17 4 16 0 -7 -25 -15 -16
-33 -43 -39 -61 -6 -17 -15 -29 -20 -26 -17 10 -9 -23 11 -49 51 -64 189 -60
257 8 28 28 33 40 33 78 0 27 -6 49 -15 57 -11 9 -15 9 -15 1 0 -7 -14 -4 -37
7 -21 11 -67 24 -102 31 -62 10 -106 31 -68 31 10 0 17 6 16 13 -4 35 1 40 39
33 54 -8 106 9 138 47 24 29 26 36 21 94 -6 55 -4 63 13 68 11 4 20 13 20 21
0 17 -3 17 -19 2z m-97 -53 c8 -8 18 -25 21 -36 6 -17 9 -19 16 -8 6 10 9 2 9
-24 0 -69 -62 -105 -134 -77 -14 5 -26 14 -26 19 0 6 7 8 15 5 12 -5 12 -2 -1
25 -17 33 -12 64 14 94 19 21 65 22 86 2z m25 -322 c14 -15 28 -27 33 -25 11
3 10 -36 -2 -59 -27 -49 -146 -67 -191 -29 -14 12 -17 18 -8 14 14 -4 16 1 12
40 -5 39 -2 48 22 71 23 24 32 27 68 22 29 -4 49 -14 66 -34z"/>
<path d="M532 633 c-41 -20 -72 -78 -72 -135 0 -45 26 -109 47 -116 8 -2 7 6
-3 28 -32 63 -12 174 35 200 40 21 87 12 115 -21 14 -17 26 -39 26 -50 0 -10
5 -19 11 -19 13 0 3 68 -14 88 -14 18 -69 42 -94 42 -10 0 -33 -8 -51 -17z"/>
<path d="M879 639 c-24 -9 -39 -29 -53 -72 -3 -10 -10 -15 -16 -12 -5 3 -10 1
-10 -5 0 -29 27 -54 86 -80 35 -16 67 -36 70 -45 4 -9 13 -14 20 -11 9 4 14
-2 14 -17 -1 -60 -75 -85 -154 -52 -30 13 -36 13 -36 1 0 -28 91 -50 144 -35
56 15 86 50 86 97 0 37 -29 97 -30 61 0 -12 -14 -9 -69 18 -69 32 -95 53 -68
53 10 0 13 8 9 25 -6 36 14 55 59 55 33 0 41 -5 54 -30 20 -38 32 -38 40 0 7
31 -7 71 -19 52 -5 -8 -15 -8 -32 -2 -31 12 -60 12 -95 -1z"/>
<path d="M1184 631 c-33 -20 -57 -68 -69 -141 -6 -37 -9 -42 -17 -25 -5 13 -6
5 -3 -25 3 -25 13 -55 21 -68 47 -72 168 -84 236 -24 27 23 10 35 -21 13 -40
-29 -91 -35 -134 -17 -35 14 -55 42 -21 29 15 -5 15 -4 0 20 -10 15 -16 40
-14 59 l3 33 108 3 107 3 0 35 c0 39 -26 104 -42 104 -5 0 -6 -5 -3 -11 4 -5
-10 -1 -31 10 -48 26 -80 26 -120 2z m116 -31 c11 -11 20 -30 20 -41 0 -19 2
-20 16 -8 14 11 15 10 12 -11 -3 -24 -6 -25 -97 -28 -56 -2 -98 1 -105 8 -7 7
-5 10 7 10 11 0 17 8 17 25 0 36 33 65 75 65 22 0 43 -8 55 -20z"/>
<path d="M4205 635 c-26 -13 -55 -53 -55 -77 0 -20 30 -5 36 17 15 59 114 63
135 6 8 -21 12 -23 20 -11 7 11 9 4 7 -25 l-3 -40 -50 -5 c-76 -9 -116 -37
-129 -94 -6 -23 -9 -27 -17 -15 -7 11 -9 11 -9 -4 0 -23 19 -58 39 -74 22 -17
92 -16 118 2 20 14 23 14 31 -1 8 -14 14 -15 57 -2 54 15 73 37 26 30 -16 -2
-32 1 -35 7 -4 6 -1 11 6 11 16 0 12 234 -5 265 -10 17 -12 18 -15 3 -3 -16
-6 -15 -35 2 -38 24 -81 25 -122 5z m145 -212 c0 -48 -2 -52 -35 -72 -55 -32
-78 -35 -106 -12 -13 12 -17 19 -8 15 14 -4 16 1 12 39 -5 39 -2 46 23 66 20
16 38 21 71 19 l43 -3 0 -52z"/>
<path d="M4814 631 c-33 -20 -57 -68 -69 -141 -6 -37 -9 -42 -17 -25 -5 13 -6
5 -3 -25 3 -25 13 -55 21 -68 47 -72 168 -84 236 -24 27 23 10 35 -21 13 -40
-29 -91 -35 -134 -17 -35 14 -55 42 -21 29 15 -5 15 -4 0 20 -10 15 -16 40
-14 59 l3 33 108 3 107 3 0 35 c0 39 -26 104 -42 104 -5 0 -6 -5 -3 -11 4 -5
-10 -1 -31 10 -48 26 -80 26 -120 2z m116 -31 c11 -11 20 -30 20 -41 0 -19 2
-20 16 -8 14 11 15 10 12 -11 -3 -24 -6 -25 -97 -28 -56 -2 -98 1 -105 8 -7 7
-5 10 7 10 11 0 17 8 17 25 0 36 33 65 75 65 22 0 43 -8 55 -20z"/>
<path d="M711 588 c23 -83 2 -184 -48 -228 -61 -54 -153 -33 -208 48 -19 28
-25 32 -25 17 0 -32 36 -83 72 -101 48 -25 126 -23 170 4 68 42 99 162 64 246
-19 46 -38 56 -25 14z"/>
<path d="M2785 590 c-3 -5 -1 -10 4 -10 6 0 11 5 11 10 0 6 -2 10 -4 10 -3 0
-8 -4 -11 -10z"/>
<path d="M820 393 c0 -12 5 -25 11 -28 17 -11 18 -2 4 25 -14 24 -14 24 -15 3z"/>
</g>
</svg>
